<svg xmlns="http://www.w3.org/2000/svg" viewBox="0 0 500 500"><g id="freepik--background-complete--inject-36"><path d="M442.37,304.22l-13.12.28-6.66.11c-2.23.05-4.47,0-6.7.06h-.44v-.45L415.39,293v-.5h.5l13.24.06c4.42,0,8.83.11,13.24.16h.28V293c0,1.9-.08,3.79-.13,5.66Zm0,0-.14-5.65c-.05-1.86-.11-3.7-.13-5.54l.27.28c-4.41.05-8.82.16-13.24.16l-13.24.06.5-.5-.05,11.19-.45-.44c2.18,0,4.36,0,6.55.05L429,304Z" style="fill:#ebebeb"></path><path d="M427.6,318.33l-13.12.28-6.67.11c-2.22,0-4.46,0-6.69.06h-.44v-.45l-.05-11.19v-.5h.5l13.24.07c4.41,0,8.83.11,13.24.16h.28v.27c0,1.9-.08,3.79-.13,5.66Zm0,0-.14-5.65c0-1.86-.11-3.7-.13-5.54l.27.28c-4.41.05-8.83.16-13.24.16l-13.24.06.5-.5-.05,11.19-.45-.44c2.18,0,4.36,0,6.55.05l6.57.12Z" style="fill:#ebebeb"></path><path d="M457.14,318.33l-13.12.28-6.66.11c-2.23,0-4.47,0-6.7.06h-.44v-.45l-.06-11.19v-.5h.5l13.24.07c4.42,0,8.83.11,13.24.16h.28v.27c0,1.9-.09,3.79-.13,5.66Zm0,0-.14-5.65c0-1.86-.11-3.7-.13-5.54l.27.28c-4.41.05-8.82.16-13.24.16l-13.24.06.5-.5-.05,11.19-.45-.44c2.19,0,4.36,0,6.55.05l6.58.12Z" style="fill:#ebebeb"></path><path d="M255.07,137.3l-13.12.27-6.66.12c-2.23,0-4.47,0-6.7.05h-.44v-.44l-.06-11.19v-.51h.5l13.24.06c4.42,0,8.83.11,13.24.16h.28v.27c0,1.89-.09,3.78-.13,5.65Zm0,0-.14-5.66c0-1.86-.11-3.7-.13-5.53l.27.27c-4.41.05-8.82.16-13.24.16l-13.24.07.5-.5L229,137.3l-.45-.45c2.18,0,4.36,0,6.55.05l6.58.12Z" style="fill:#ebebeb"></path><path d="M240.3,151.41l-13.12.27-6.66.12c-2.23,0-4.47,0-6.7,0h-.44v-.44l-.06-11.19v-.51h.5l13.24.06c4.42,0,8.83.11,13.24.16h.28v.27c0,1.89-.08,3.78-.13,5.65Zm0,0-.14-5.66c0-1.86-.11-3.7-.13-5.53l.27.27c-4.41,0-8.82.16-13.24.16l-13.24.07.5-.5,0,11.19-.45-.45c2.18,0,4.36,0,6.55,0l6.58.12Z" style="fill:#ebebeb"></path><path d="M103.1,301.57,90,301.85l-6.66.12c-2.23,0-4.46,0-6.7,0h-.44v-.45l-.06-11.19v-.5h.5l13.24.06c4.42,0,8.83.11,13.24.16h.28v.27c0,1.9-.09,3.79-.13,5.66Zm0,0-.14-5.65c0-1.86-.11-3.7-.13-5.54l.27.28c-4.41,0-8.82.16-13.24.16l-13.24.06.5-.5-.05,11.19-.45-.44c2.19,0,4.36,0,6.55.05l6.58.12Z" style="fill:#ebebeb"></path><path d="M88.33,315.68,75.21,316l-6.66.11c-2.23.05-4.47,0-6.7.06h-.44v-.45l-.06-11.19V304h.5l13.24.06c4.42,0,8.83.11,13.24.16h.28v.27c0,1.9-.09,3.79-.14,5.66Zm0,0L88.19,310c0-1.86-.11-3.7-.13-5.54l.27.28c-4.41.05-8.82.16-13.24.16L61.85,305l.5-.5-.05,11.19-.45-.44c2.18,0,4.36,0,6.55.05l6.58.12Z" style="fill:#ebebeb"></path><path d="M269.85,151.41l-13.13.27-6.66.12c-2.23,0-4.46,0-6.7,0h-.44v-.44l0-11.19v-.51h.5l13.25.06c4.41,0,8.82.11,13.24.16h.27v.27c0,1.89-.09,3.78-.13,5.65Zm0,0-.15-5.66c0-1.86-.11-3.7-.13-5.53l.28.27c-4.42,0-8.83.16-13.24.16l-13.25.07.5-.5-.05,11.19-.45-.45c2.19,0,4.36,0,6.55,0l6.58.12Z" style="fill:#ebebeb"></path><path d="M98.88,409.4l-13.12.28-6.67.12c-2.22,0-4.46,0-6.69.05H72v-.45l0-11.18v-.51h.5l13.24.06c4.41,0,8.83.11,13.24.16h.28v.27c0,1.89-.08,3.78-.13,5.65Zm0,0-.14-5.65c0-1.86-.11-3.7-.13-5.53l.27.27c-4.41.05-8.83.16-13.24.16l-13.24.06.5-.49-.05,11.18L72.4,409c2.18,0,4.36,0,6.55.05l6.57.12Z" style="fill:#ebebeb"></path><path d="M440.84,62.38l-13.12.28-6.67.11c-2.22,0-4.46,0-6.69.06h-.44v-.45l-.05-11.19v-.5h.5l13.24.06c4.41,0,8.83.12,13.24.17h.28v.27c0,1.9-.08,3.79-.13,5.65Zm0,0-.14-5.65c-.05-1.87-.11-3.71-.13-5.54l.27.27c-4.41,0-8.83.16-13.24.17l-13.24.06.5-.5-.05,11.19-.45-.45c2.18,0,4.36,0,6.55.06l6.57.11Z" style="fill:#ebebeb"></path><path d="M455.61,76.49l-13.12.28-6.66.11c-2.23.05-4.47,0-6.7.05h-.44v-.45l-.06-11.19v-.5h.5l13.24.06c4.42,0,8.83.12,13.24.17h.28v.27c0,1.9-.09,3.79-.14,5.65Zm0,0-.14-5.65c0-1.87-.11-3.71-.13-5.54l.27.27c-4.41.05-8.82.16-13.24.17l-13.24.06.5-.5-.05,11.19-.45-.45c2.18,0,4.36,0,6.55.06l6.58.11Z" style="fill:#ebebeb"></path><path d="M69.34,62.39l-13.13.28-6.66.11c-2.22,0-4.46,0-6.69.06h-.45v-.45l0-11.19v-.5h.51l13.24.07c4.41,0,8.82.11,13.24.16h.27v.27c0,1.9-.09,3.79-.13,5.66Zm0,0-.15-5.65c0-1.87-.11-3.71-.13-5.54l.28.27c-4.42.06-8.83.16-13.24.17l-13.24.06.5-.5L43.3,62.39,42.86,62c2.18,0,4.35,0,6.54,0l6.58.11Z" style="fill:#ebebeb"></path><rect x="315.22" y="52.44" width="127.92" height="11.29" style="fill:#dbdbdb"></rect><polygon points="435.72 273.85 379.18 300.14 322.64 273.85 322.64 63.73 435.72 63.73 435.72 273.85" style="fill:#ebebeb"></polygon><polygon points="424.71 263.83 379.18 285.01 333.65 263.83 333.65 63.73 424.71 63.73 424.71 263.83" style="fill:#dbdbdb"></polygon><polygon points="338.85 63.74 338.85 266.25 333.66 263.83 333.66 63.74 338.85 63.74" style="fill:#fff"></polygon><polygon points="349.58 63.74 349.58 271.25 344.39 268.83 344.39 63.74 349.58 63.74" style="fill:#fff"></polygon><polygon points="360.31 63.74 360.31 276.23 355.12 273.81 355.12 63.74 360.31 63.74" style="fill:#fff"></polygon><polygon points="371.05 63.74 371.05 281.23 365.85 278.81 365.85 63.74 371.05 63.74" style="fill:#fff"></polygon><polygon points="381.78 63.74 381.78 283.8 379.18 285.01 376.58 283.8 376.58 63.74 381.78 63.74" style="fill:#fff"></polygon><polygon points="392.51 63.74 392.51 278.81 387.31 281.23 387.31 63.74 392.51 63.74" style="fill:#fff"></polygon><polygon points="403.24 63.74 403.24 273.81 398.05 276.23 398.05 63.74 403.24 63.74" style="fill:#fff"></polygon><polygon points="413.97 63.74 413.97 268.83 408.78 271.25 408.78 63.74 413.97 63.74" style="fill:#fff"></polygon><polygon points="424.7 63.74 424.7 263.83 419.51 266.25 419.51 63.74 424.7 63.74" style="fill:#fff"></polygon><rect x="56.86" y="52.44" width="127.92" height="11.29" style="fill:#dbdbdb"></rect><polygon points="177.36 273.85 120.82 300.14 64.28 273.85 64.28 63.73 177.36 63.73 177.36 273.85" style="fill:#ebebeb"></polygon><polygon points="166.35 263.83 120.82 285.01 75.29 263.83 75.29 63.73 166.35 63.73 166.35 263.83" style="fill:#dbdbdb"></polygon><polygon points="80.49 63.74 80.49 266.25 75.3 263.83 75.3 63.74 80.49 63.74" style="fill:#fff"></polygon><polygon points="91.22 63.74 91.22 271.25 86.03 268.83 86.03 63.74 91.22 63.74" style="fill:#fff"></polygon><polygon points="101.95 63.74 101.95 276.23 96.76 273.81 96.76 63.74 101.95 63.74" style="fill:#fff"></polygon><polygon points="112.69 63.74 112.69 281.23 107.49 278.81 107.49 63.74 112.69 63.74" style="fill:#fff"></polygon><polygon points="123.42 63.74 123.42 283.8 120.82 285.01 118.22 283.8 118.22 63.74 123.42 63.74" style="fill:#fff"></polygon><polygon points="134.15 63.74 134.15 278.81 128.95 281.23 128.95 63.74 134.15 63.74" style="fill:#fff"></polygon><polygon points="144.88 63.74 144.88 273.81 139.69 276.23 139.69 63.74 144.88 63.74" style="fill:#fff"></polygon><polygon points="155.61 63.74 155.61 268.83 150.42 271.25 150.42 63.74 155.61 63.74" style="fill:#fff"></polygon><polygon points="166.34 63.74 166.34 263.83 161.15 266.25 161.15 63.74 166.34 63.74" style="fill:#fff"></polygon></g><g id="freepik--Line--inject-36"><polygon points="41.01 455 93.26 454.75 145.51 454.67 250 454.5 354.49 454.66 406.74 454.75 458.99 455 406.74 455.24 354.49 455.33 250 455.5 145.51 455.33 93.26 455.24 41.01 455" style="fill:#263238"></polygon></g><g id="freepik--Confetti--inject-36"><path d="M166.22,157.15a3,3,0,0,1-2.5,3.38,2.92,2.92,0,0,1-3.26-2.59,3,3,0,0,1,2.5-3.38A2.92,2.92,0,0,1,166.22,157.15Z" style="fill:#5DB6FC"></path><path d="M395.44,169.62a3,3,0,0,1-2.5,3.38,2.92,2.92,0,0,1-3.26-2.59,3,3,0,0,1,2.5-3.38A2.92,2.92,0,0,1,395.44,169.62Z" style="fill:#5DB6FC"></path><path d="M180.24,199.89a1.49,1.49,0,0,1-1.25,1.69,1.47,1.47,0,0,1-1.63-1.3,1.49,1.49,0,0,1,1.25-1.68A1.47,1.47,0,0,1,180.24,199.89Z" style="fill:#5DB6FC"></path><path d="M165.18,104.42a1.48,1.48,0,0,1-1.24,1.68,1.46,1.46,0,0,1-1.63-1.29,1.49,1.49,0,0,1,1.24-1.69A1.46,1.46,0,0,1,165.18,104.42Z" style="fill:#5DB6FC"></path><path d="M369.8,76.29A1.51,1.51,0,0,1,368.55,78a1.46,1.46,0,0,1-1.63-1.29A1.49,1.49,0,0,1,368.17,75,1.47,1.47,0,0,1,369.8,76.29Z" style="fill:#455a64"></path><path d="M288,241.13a1.51,1.51,0,0,1-1.25,1.69,1.46,1.46,0,0,1-1.63-1.3,1.48,1.48,0,0,1,1.25-1.68A1.46,1.46,0,0,1,288,241.13Z" style="fill:#5DB6FC"></path><path d="M241.57,47.08a1.5,1.5,0,0,1-1.25,1.69,1.47,1.47,0,0,1-1.63-1.3,1.49,1.49,0,0,1,1.25-1.68A1.47,1.47,0,0,1,241.57,47.08Z" style="fill:#5DB6FC"></path><path d="M101.28,183.15a1.49,1.49,0,0,1-1.24,1.69,1.46,1.46,0,0,1-1.63-1.29,1.49,1.49,0,0,1,1.24-1.69A1.46,1.46,0,0,1,101.28,183.15Z" style="fill:#5DB6FC"></path><path d="M349.33,302a1.49,1.49,0,0,1-1.25,1.69,1.47,1.47,0,0,1-1.63-1.3,1.49,1.49,0,0,1,1.25-1.68A1.46,1.46,0,0,1,349.33,302Z" style="fill:#455a64"></path><path d="M87.47,390.53a1.5,1.5,0,0,1-1.25,1.69,1.46,1.46,0,0,1-1.63-1.29,1.49,1.49,0,0,1,1.25-1.69A1.47,1.47,0,0,1,87.47,390.53Z" style="fill:#455a64"></path><path d="M152,276a1.51,1.51,0,0,1-1.25,1.69,1.46,1.46,0,0,1-1.63-1.3,1.48,1.48,0,0,1,1.25-1.68A1.47,1.47,0,0,1,152,276Z" style="fill:#5DB6FC"></path><path d="M385.16,304.48a3,3,0,0,1-2.5,3.38,2.93,2.93,0,0,1-3.27-2.59,3,3,0,0,1,2.5-3.38A2.93,2.93,0,0,1,385.16,304.48Z" style="fill:#5DB6FC"></path><path d="M223.23,93.26a3,3,0,0,1-2.5,3.39,2.94,2.94,0,0,1-3.27-2.59,3,3,0,0,1,2.5-3.38A2.93,2.93,0,0,1,223.23,93.26Z" style="fill:#455a64"></path><path d="M157.83,247.74a3,3,0,0,1-2.5,3.38,2.94,2.94,0,0,1-3.27-2.59,3,3,0,0,1,2.5-3.38A2.93,2.93,0,0,1,157.83,247.74Z" style="fill:#455a64"></path><path d="M241,147.11a3,3,0,0,1-2.5,3.38,2.94,2.94,0,0,1-3.27-2.59,3,3,0,0,1,2.5-3.38A2.93,2.93,0,0,1,241,147.11Z" style="fill:#5DB6FC"></path><path d="M299.91,139.41,304,138s-2.81-1.5-2.81-6.16,3.85-6.5,2.19-10.72l-4.58,1.27a9.1,9.1,0,0,1,.2,7.15C297.82,132.21,296.72,135.39,299.91,139.41Z" style="fill:#455a64"></path><path d="M209.24,158.82l-4.06-1.58s1.27,3-1.57,6.61-7,2.53-8.23,6.89l4.34,2a8.82,8.82,0,0,1,4.18-5.68C206.48,165.77,209.27,164,209.24,158.82Z" style="fill:#455a64"></path><path d="M164.79,208.33l-4.07-1.58s1.27,3-1.57,6.61-7,2.53-8.23,6.89l4.34,2a8.81,8.81,0,0,1,4.19-5.68C162,215.28,164.81,213.53,164.79,208.33Z" style="fill:#5DB6FC"></path><path d="M424,227.57,419.94,226s1.27,3-1.57,6.62-6.95,2.53-8.23,6.89l4.34,2a8.82,8.82,0,0,1,4.18-5.68C421.24,234.53,424,232.77,424,227.57Z" style="fill:#5DB6FC"></path><path d="M101.55,356.56,97.49,355s1.26,3-1.58,6.61-6.94,2.53-8.22,6.9l4.33,2a8.81,8.81,0,0,1,4.19-5.68C98.79,363.51,101.58,361.76,101.55,356.56Z" style="fill:#5DB6FC"></path><path d="M125.54,163.07l.59-4.45s-2.55,1.94-6.58-.13-3.92-6.45-8.31-6.78l-.93,4.82a8.33,8.33,0,0,1,6.27,3C118.38,161.82,120.64,164.25,125.54,163.07Z" style="fill:#455a64"></path><path d="M142,268.76l.59-4.45s-2.55,1.94-6.58-.13-3.92-6.45-8.31-6.78l-.93,4.82a8.37,8.37,0,0,1,6.28,3C134.82,267.51,137.09,269.94,142,268.76Z" style="fill:#5DB6FC"></path><path d="M423.82,400.59l.59-4.46s-2.54,1.95-6.58-.12-3.92-6.46-8.31-6.78l-.93,4.82a8.36,8.36,0,0,1,6.28,3C416.66,399.34,418.93,401.77,423.82,400.59Z" style="fill:#455a64"></path><path d="M392.2,138.45l.59-4.45s-2.54,1.94-6.58-.13-3.92-6.46-8.31-6.78l-.93,4.82a8.37,8.37,0,0,1,6.28,3C385,137.2,387.31,139.63,392.2,138.45Z" style="fill:#5DB6FC"></path><path d="M161.07,300.4l.83,4.41s1.8-2.68,6.26-2.06,5.72,4.81,10,3.66l-.62-4.88a8.21,8.21,0,0,1-6.86-.73C168.24,299.21,165.34,297.66,161.07,300.4Z" style="fill:#455a64"></path><path d="M233.71,208.38l-4.58-2.57s-3.7,5.78.76,8.69C229.89,214.5,229,210.75,233.71,208.38Z" style="fill:#5DB6FC"></path><path d="M230,221.55l4.81-1.85s.27-4.28-4.93-5.2C229.89,214.5,233.15,218.38,230,221.55Z" style="fill:#5DB6FC"></path><path d="M146.8,75.51l-5.23-.42s-.94,6.8,4.32,7.58C145.89,82.67,143.49,79.65,146.8,75.51Z" style="fill:#455a64"></path><path d="M149,89l3.59-3.7s-1.53-4-6.65-2.65C145.89,82.67,150.48,84.82,149,89Z" style="fill:#455a64"></path><path d="M272,113.64a3,3,0,0,1,2.5-3.38,2.92,2.92,0,0,1,3.26,2.59,3,3,0,0,1-2.5,3.38A2.92,2.92,0,0,1,272,113.64Z" style="fill:#5DB6FC"></path><path d="M358.18,193.86a3,3,0,0,1,2.5-3.38,2.93,2.93,0,0,1,3.27,2.59,3,3,0,0,1-2.5,3.38A2.93,2.93,0,0,1,358.18,193.86Z" style="fill:#5DB6FC"></path><path d="M297,299.29a3,3,0,0,1,2.5-3.38,2.93,2.93,0,0,1,3.27,2.59,3,3,0,0,1-2.5,3.38A2.93,2.93,0,0,1,297,299.29Z" style="fill:#5DB6FC"></path><path d="M76,255.18a1.49,1.49,0,0,1,1.25-1.69,1.47,1.47,0,0,1,1.63,1.29,1.5,1.5,0,0,1-1.25,1.69A1.46,1.46,0,0,1,76,255.18Z" style="fill:#5DB6FC"></path><path d="M260.87,219.13a1.49,1.49,0,0,1,1.25-1.69,1.47,1.47,0,0,1,1.63,1.29,1.5,1.5,0,0,1-1.25,1.69A1.46,1.46,0,0,1,260.87,219.13Z" style="fill:#5DB6FC"></path><path d="M423.27,373.05a1.49,1.49,0,0,1,1.25-1.69,1.47,1.47,0,0,1,1.63,1.29,1.5,1.5,0,0,1-1.25,1.69A1.46,1.46,0,0,1,423.27,373.05Z" style="fill:#5DB6FC"></path><path d="M250.3,97.11a1.49,1.49,0,0,1,1.25-1.69,1.47,1.47,0,0,1,1.63,1.29,1.51,1.51,0,0,1-1.25,1.69A1.46,1.46,0,0,1,250.3,97.11Z" style="fill:#5DB6FC"></path><path d="M349.62,95.15a3,3,0,0,1,2.5-3.38,2.92,2.92,0,0,1,3.26,2.59,3,3,0,0,1-2.5,3.38A2.92,2.92,0,0,1,349.62,95.15Z" style="fill:#5DB6FC"></path><path d="M336.47,173.42A3,3,0,0,1,339,170a2.93,2.93,0,0,1,3.27,2.59,3,3,0,0,1-2.5,3.38A2.93,2.93,0,0,1,336.47,173.42Z" style="fill:#455a64"></path><path d="M199.74,123l-6.93,2s-3.3-9,3.56-11.5C196.37,113.52,194,118.3,199.74,123Z" style="fill:#5DB6FC"></path><path d="M198.6,104.05l6,4s-.87,5.85-8.18,5.45C196.37,113.52,201.92,109.32,198.6,104.05Z" style="fill:#5DB6FC"></path><path d="M385.37,282.72l-6.93,2s-3.3-9,3.57-11.5C382,273.26,379.67,278,385.37,282.72Z" style="fill:#455a64"></path><path d="M384.23,263.79l5.95,4s-.87,5.85-8.17,5.46C382,273.26,387.55,269.06,384.23,263.79Z" style="fill:#455a64"></path><path d="M310.61,174.66l-.93-7.4s9-2.08,10.47,5.33C320.15,172.59,315.92,169.5,310.61,174.66Z" style="fill:#5DB6FC"></path><path d="M328.87,176.25l-4.7,5.51s-5.47-1.75-4-9.17C320.15,172.59,323.35,178.88,328.87,176.25Z" style="fill:#5DB6FC"></path><path d="M189.76,274.2l-6.93,2s-3.3-9,3.56-11.5C186.39,264.74,184.05,269.51,189.76,274.2Z" style="fill:#5DB6FC"></path><path d="M188.62,255.27l5.95,4s-.87,5.85-8.18,5.46C186.39,264.74,191.94,260.54,188.62,255.27Z" style="fill:#5DB6FC"></path><path d="M313.05,81.78l4.58,2.58s3.7-5.78-.75-8.7C316.88,75.66,317.79,79.42,313.05,81.78Z" style="fill:#5DB6FC"></path><path d="M316.76,68.62,312,70.47s-.28,4.27,4.93,5.19C316.88,75.66,313.61,71.79,316.76,68.62Z" style="fill:#5DB6FC"></path><path d="M328.6,255.84l.76,5.34s6.68-.41,6.26-5.85C335.62,255.33,333.27,258.35,328.6,255.84Z" style="fill:#5DB6FC"></path><path d="M341,251l-4.32-2.87s-3.47,2.34-1.05,7.2C335.62,255.33,336.65,250.3,341,251Z" style="fill:#5DB6FC"></path></g><g id="freepik--Character--inject-36"><path d="M357.53,455H259.71q-1.72-6.15-3.58-12.73L255.5,440l-.63-2.25-.3-1c-.11-.41-.23-.82-.34-1.23-2.36-8.35-4.82-17.06-7.32-25.88-.33-1.14-.65-2.3-1-3.45-.1-.36-.21-.71-.31-1.07a.29.29,0,0,0,0-.09l0-.11a.49.49,0,0,0,0-.11c-.21-.78-.44-1.56-.66-2.34-.46-1.64-.93-3.28-1.39-4.92l-1.41-4.93c-.22-.79-.43-1.57-.66-2.35v0c-.22-.8-.44-1.59-.67-2.38s-.46-1.6-.68-2.4q-.72-2.47-1.41-4.93c-.28-1-.55-1.93-.83-2.89-.62-2.2-1.25-4.4-1.87-6.59q-.75-2.62-1.48-5.21c-.17-.62-.34-1.24-.52-1.85l-.48-1.67q-.77-2.65-1.51-5.28c-.21-.76-.43-1.52-.64-2.28s-.44-1.52-.65-2.27c-.28-1-.57-2-.85-3-.15-.5-.29-1-.43-1.5s-.27-.95-.4-1.42c-.08-.26-.15-.52-.23-.78-.22-.79-.45-1.56-.66-2.34l-.57-2c-.21-.72-.41-1.43-.62-2.14-.81-2.83-1.6-5.6-2.36-8.28l-.12-.44h0c-.27-.94-.54-1.85-.79-2.77h0c-.26-.9-.52-1.8-.78-2.68s-.52-1.84-.78-2.74l-.3-1c-.35-1.24-.7-2.45-1-3.64,0-.16-.1-.33-.14-.49-.32-1.12-.63-2.21-.93-3.28-.13-.47-.27-.95-.41-1.41-.19-.64-.37-1.27-.54-1.88-.44-1.55-.86-3.05-1.27-4.48-.08-.25-.15-.5-.22-.75s-.2-.66-.28-1c0-.09-.05-.18-.07-.26-.23-.79-.44-1.56-.66-2.3-.4-1.37-.76-2.66-1.12-3.89,0,0,0,0,0,0-.11-.41-.23-.81-.34-1.2-.21-.77-.42-1.52-.64-2.23-.58-2.05-1.09-3.79-1.48-5.22a.85.85,0,0,1-.06-.17c-.11-.42-.22-.82-.34-1.17s-.25-.88-.37-1.25h0c-.31-1.13-.48-1.73-.48-1.73h0l1.33,0,81,1.39h0l4.95.11,17.18.38s3.55,34.47,4.54,38.11C330.27,361.09,346.9,415.45,357.53,455Z" style="fill:#263238"></path><path d="M268.9,455h-1.55c-.71-2.42-1.39-4.63-2-6.53q-12-37-22-74.65-5-18.7-9.52-37.55-1.2-5.07-2.42-10.15l-.87-3.67h0c-1.87-8-3.65-16-5.14-24,0-.27.34-.39.41-.13.85,3.18,1.64,6.38,2.42,9.57q1.62,6.66,3.3,13.31h0c.31,1.28.63,2.53,1,3.81h0q7.38,29.16,15.64,58.09C252.09,397.15,261.16,428.21,268.9,455Z" style="fill:#37474f"></path><path d="M293.73,286.43h0c0,.39-.86,9.38-2.16,23.51h0c-.19,2-.39,4.2-.59,6.45-.37,3.95-.76,8.19-1.17,12.68,0,.46-.09.92-.13,1.39h0c0,.26-.05.52-.08.79-3.3,36-8,86.45-11.43,123.72H259.71q-1.72-6.15-3.58-12.73L255.5,440l-.63-2.25-.64-2.26c-2.36-8.35-4.82-17.06-7.32-25.88-.33-1.14-.65-2.3-1-3.45L245.6,405l0-.11c-.23-.81-.46-1.63-.7-2.45-.46-1.64-.93-3.28-1.39-4.92l-2.07-7.28v0c-.45-1.6-.91-3.19-1.35-4.78s-1-3.29-1.41-4.93c-.9-3.18-1.81-6.34-2.7-9.48q-.75-2.62-1.48-5.21c-.34-1.18-.67-2.35-1-3.52q-.77-2.65-1.51-5.28c-.72-2.54-1.44-5.05-2.14-7.52-.15-.5-.29-1-.43-1.5l-.63-2.2c-.22-.79-.45-1.56-.66-2.34-.4-1.39-.8-2.77-1.19-4.14-.81-2.83-1.6-5.6-2.36-8.28,0-.15-.09-.3-.13-.45-.27-.93-.53-1.86-.8-2.77s-.51-1.8-.76-2.69-.52-1.84-.78-2.74l-.3-1c-.35-1.24-.7-2.45-1-3.64,0-.16-.1-.33-.14-.49l-1.34-4.69c-.19-.64-.37-1.27-.54-1.88q-.78-2.75-1.49-5.23c-.1-.33-.2-.66-.28-1-.68-2.33-1.29-4.49-1.85-6.45,0,0,0,0,0,0l-3.23-11.24h0l-.33-1.14c-.11-.39-.16-.59-.16-.59h0Z" style="fill:#37474f"></path><path d="M290.82,328.58c-.36.65-.74,1.27-1.14,1.9h0l0,.06s-3.59,2.16-7.4,4.41h0l-.5.3h0c-2.18,1.28-4.37,2.55-6,3.43h0L271.92,455H182.29c2.83-45.77,4.45-79.85,3.44-85.41-5.78-31.65.57-60.52,9-84.92l104,1.83v.05C298.75,287.9,299.75,312.54,290.82,328.58Z" style="fill:#263238"></path><path d="M295.87,326.22c-9.81,4.32-19.14,10-28,15.9a.33.33,0,0,0,.33.56c9.47-5,19.15-9.87,28.33-15.38A.63.63,0,0,0,295.87,326.22Z" style="fill:#37474f"></path><path d="M283.34,324.57a44.27,44.27,0,0,0-1.44,5.8,12.43,12.43,0,0,0-.39,4.69.36.36,0,0,0,.63.07,16.2,16.2,0,0,0,1.62-4.69c.5-1.8,1-3.59,1.5-5.4C285.56,323.84,283.73,323.4,283.34,324.57Z" style="fill:#37474f"></path><path d="M282.64,315.05c.29-1.64.58-3.28.91-4.91s.8-3.39,1-5.1c0-.27.47-.18.42.09-.29,1.65-.35,3.35-.51,5s-.35,3.33-.55,5c-.37,3.1-1,6.22-1.63,9.27a11,11,0,0,0,4.56-1.79c1.43-1.12,2.05-3,2.52-4.7.52-1.88,1-3.77,1.51-5.64a37,37,0,0,0,1.56-6.28c0-.27.46-.19.42.09a67.52,67.52,0,0,1-2.76,13.23c-.59,1.7-1,3.41-2.56,4.35A14.19,14.19,0,0,1,282,325.2c-.21.11-.54,0-.52-.27A99.34,99.34,0,0,1,282.64,315.05Z" style="fill:#37474f"></path><path d="M202.91,303.56c-2.43,14.43-4.75,28.77-3.43,43.35.66,7.24,1.71,14.45,2.27,21.72a190.47,190.47,0,0,1,.34,21.37c-.44,13-1.64,25.93-2.63,38.88q-1,13.06-2,26.12h-2.55l3-36.45c1.07-12.91,2.33-25.87,2.36-38.83s-2-25.46-2.39-38.24,1.32-26.73,4-39.3C201.92,301.92,203.48,300.23,202.91,303.56Z" style="fill:#37474f"></path><path d="M237.88,303.31a.21.21,0,0,0-.38-.05c-.84,1.38-.74,3.7-1,5.3a36.36,36.36,0,0,1-1.45,5.7,22.83,22.83,0,0,1-6.1,9.84c-6.31,5.69-14.66,7.68-22.71,9.5-.3.07-.2.47.07.5a36.14,36.14,0,0,0,14-1.93,29.13,29.13,0,0,0,10.89-5.84,20,20,0,0,0,6-10.43,35.91,35.91,0,0,0,.79-6.37c.05-1,.08-2.06.1-3.09A8,8,0,0,0,237.88,303.31Z" style="fill:#37474f"></path><path d="M276.53,175.36c19.91,32.81,61.13,73.78,76.22,72.37,7.18-.67,20.17-.32,28.7-9.57,18.61-20.17,29.48-51,35.23-73.57,1.77-6.93-42.83-22.31-45.89-15.3-8,18.39-16.7,42.27-18.8,42.33-7.77.24-40.62-21.65-63.56-37.09C260.58,135.79,268.59,162.28,276.53,175.36Z" style="fill: rgb(247, 169, 160);"></path><path d="M412.36,176.55c-4.14,4.47-41.86-9.17-43.78-15.13a24.88,24.88,0,0,1-.55-6.24h0s-4.92-13.06-12.87-22.47c-6.67-7.91-17.47-18.9-13.35-22.65,6-5.47,21.33,6.78,29.7,14.35,1.35-6,3.08-11,5.16-13.57,6.9-8.5,48.76,17.49,48.68,28.62C425.26,150.2,416.51,172.08,412.36,176.55Z" style="fill: rgb(247, 169, 160);"></path><path d="M368.63,126.05c2.91,4.89,7-1.33,7-1.33S371.9,135.1,376.85,139c4.78,3.73,9.46-4,9.81-4.51-.2.55-3.38,10.18,2,13.57,5.59,3.52,9-5,9.18-5.57,0,.58-.14,8.22,4.53,9.87,8,2.82,8.87-16.7,14.14-21.14,0,0,8.54,8.07,8.83,8.25,0,0,1.19-18.56-5.19-25.33a5.93,5.93,0,0,0-7.35-1.14s1-6-3.11-8.75c-2.13-1.43-6.32.71-6.32.71s.64-4.8-3.2-7.06c-3.07-1.82-6.79.61-6.79.61s-1.52-4.89-5.25-5.72C380.59,91.06,362.42,115.58,368.63,126.05Z" style="fill: rgb(247, 169, 160);"></path><path d="M392.72,98.78a.08.08,0,0,0-.11-.11C384.67,105.27,378,115,375.38,125c-.08.33.42.61.58.26C380.6,115.42,385.51,107,392.72,98.78Z" style="fill:#263238"></path><path d="M403.4,104.78c.08-.09-.07-.22-.16-.14-8.15,6.85-15.41,18-17,29.93-.05.41.31.83.41.36C388.31,127.06,396.87,112.17,403.4,104.78Z" style="fill:#263238"></path><path d="M398,143.35c2-11.41,7.41-21,14.42-30.11.09-.12-.08-.24-.19-.16-4.64,3.51-8.5,9.76-11.09,14.88a30.57,30.57,0,0,0-3.54,15.32C397.62,143.49,398,143.59,398,143.35Z" style="fill:#263238"></path><path d="M375.46,124.79c-.1.39.59.1.5.5-.37,1.69-1.74,12,1.63,13.55,2.7,1.24,6.24-1.52,7.18-3.12l2.38-4-.84,4.6a19.15,19.15,0,0,0-.15,6.18,6.78,6.78,0,0,0,2.69,4.89,3.88,3.88,0,0,0,4.9-.21,11.81,11.81,0,0,0,3.2-5l1.92-5.18-.12,5.5a17.93,17.93,0,0,0,.49,4.55,7.41,7.41,0,0,0,2,3.77,3.5,3.5,0,0,0,3.63.7,7.78,7.78,0,0,0,3.05-3.1,61.05,61.05,0,0,0,4-8.71c.61-1.5,1.22-3,1.9-4.48a11.55,11.55,0,0,1,2.69-4,12.39,12.39,0,0,0-2.28,4.21c-.56,1.51-1.05,3.05-1.54,4.59a52.64,52.64,0,0,1-3.61,9.11,9,9,0,0,1-3.54,3.83,5,5,0,0,1-5.4-.83,9,9,0,0,1-2.6-4.61,19.12,19.12,0,0,1-.62-5.06l1.8.32a13.44,13.44,0,0,1-3.73,5.9,5.62,5.62,0,0,1-3.56,1.4,6.45,6.45,0,0,1-3.61-1.12,8.63,8.63,0,0,1-3.4-6.2,20.37,20.37,0,0,1,.28-6.79l1.54.58c-1.27,2-4.89,5.52-9.33,4.12C371.4,138,374.71,126.79,375.46,124.79Z" style="fill:#263238"></path><path d="M375.64,124.72a11.23,11.23,0,0,1-2.8,2.08,2.62,2.62,0,0,1-2.67,0,5.36,5.36,0,0,1-1.71-2.54c-.4-1.07-.77-2.22-1.1-3.42a9,9,0,0,0-.1,3.76,5.34,5.34,0,0,0,2,3.53,3.58,3.58,0,0,0,4.19-.23A6.08,6.08,0,0,0,375.64,124.72Z" style="fill:#263238"></path><path d="M416.81,176.1s-22.08,58.09-37.61,66.2-25.41,7.71-31.54,7.44a16.41,16.41,0,0,1-6.71-2.4c-17.6-9.93-51.27-48.12-65.62-70.07-10.78-16.5-11.46-32.4,2.59-28.76,3.5.89,7.92,3,13.33,6.65,27.07,18.19,58,35,59.32,34.09s13.19-25,13.19-25Z" style="fill:#37474f"></path><path d="M341,247.34c-17.6-9.93-51.27-48.12-65.62-70.07-10.78-16.5-11.46-32.4,2.59-28.76C286.29,161.48,322.82,218.27,341,247.34Z" style="fill:#263238"></path><path d="M411,186.87c-2-.83-20.19-5.78-24.17-6.77s-20.23-5.2-24.42-5.88a.15.15,0,0,0-.08.29c4,1.45,20.36,5.74,24.4,6.83s22.17,5.59,24.23,5.81C411.1,187.17,411.1,186.93,411,186.87Z" style="fill:#263238"></path><path d="M316.8,307.08c-2,2.11-129-.76-129.64-1.56-1.73-2.19,32-133.31,61.07-155.57,6.25-4.78,29.78-3.47,33-2.13,3.62,1.5,13.57,19.27,18,33.66C307.92,210.28,318.54,305.23,316.8,307.08Z" style="fill:#fff"></path><polygon points="270.37 177.95 276.51 167.66 283.91 176.15 281.86 184.36 274.33 185.14 270.37 177.95" style="fill:#5DB6FC"></polygon><polygon points="274.33 185.14 268.7 269.45 283.85 297.73 292.81 266.52 281.86 184.36 274.33 185.14" style="fill:#5DB6FC"></polygon><path d="M328.33,336s-16.73-.34-39.11-.87c-1.71-7.88-5.42-27.15-5.75-27.14-.23.43-5.87,19.27-7.67,26.84-21.73-.55-46.33-1.18-65.71-1.84-19.55-.69-33.82-1.34-34.59-1.91s9.43-26.78,10.53-30.64c8.61-30.53,32.86-117.88,54.61-143.22.74-.87,6.48-7.83,6.48-7.83l36.18,82.77c0-.71,5.63-19.76,6.43-39.76.29-7.19-3.42-38.71-3.42-38.71,1.92,2.66,13,19.08,20.07,52.57,7.2,34.06,12.15,81,14.82,104.49C321.2,310.72,328.32,335.49,328.33,336Z" style="fill:#37474f"></path><path d="M283.3,232.13q.6,9.48.82,19c.17,6.31.23,12.63.27,19s0,12.64-.18,19-.36,12.64-.74,19q-.6-9.48-.82-19c-.17-6.32-.23-12.63-.26-18.95s0-12.64.17-19S282.93,238.45,283.3,232.13Z" style="fill:#263238"></path><path d="M279.75,246.08a3.66,3.66,0,1,1-3.76-3.54A3.66,3.66,0,0,1,279.75,246.08Z" style="fill:#263238"></path><path d="M279.11,266.78a3.66,3.66,0,1,1-3.76-3.55A3.64,3.64,0,0,1,279.11,266.78Z" style="fill:#263238"></path><path d="M278.48,287.47a3.66,3.66,0,1,1-3.77-3.54A3.66,3.66,0,0,1,278.48,287.47Z" style="fill:#263238"></path><path d="M310.28,197.07c-.82,4.66-3.94,8.3-7.95,8.75s-7.72-2.45-9.36-6.85Z" style="fill:#455a64"></path><path d="M310.45,193.25c0,.2,0,.4,0,.6a5.76,5.76,0,0,1,0,.59,5,5,0,0,1,0,.55c0,.23,0,.46,0,.68a10.71,10.71,0,0,1-.18,1.4L293,199a13.75,13.75,0,0,1-.42-1.33c-.06-.21-.11-.43-.15-.65s-.07-.36-.11-.55-.06-.38-.08-.58,0-.4-.07-.6,0-.39,0-.59,0-.39,0-.59,0-.39,0-.59,0-.27,0-.41a2.45,2.45,0,0,1,0-.27c0-.32.06-.63.1-.95,0-.15,0-.31.08-.46.85-4.65,3.95-8.25,8-8.69s7.68,2.41,9.32,6.79c.06.14.11.29.17.43.09.3.19.6.26.91a1.11,1.11,0,0,1,.07.26c0,.13.07.27.09.4a5.22,5.22,0,0,1,.11.57c0,.2.07.39.09.58S310.43,193.05,310.45,193.25Z" style="fill:#5DB6FC"></path><path d="M310.45,193.25a13.83,13.83,0,0,1-.17,3.82L293,199a14.55,14.55,0,0,1-.66-7.57l17.28-1.9A13.61,13.61,0,0,1,310.45,193.25Z" style="fill:#fff"></path><path d="M295.79,197.27l0,0v0l0,0h0l0-.05-1.7-3.88a.42.42,0,0,1,.12-.51c.14-.1.32,0,.41.16l1.34,3.07.78-3.3a.3.3,0,0,1,.38-.25.42.42,0,0,1,.21.47l-1,4.18s0,0,0,.05h0l0,.05v0l0,0h0s0,0,0,0h0l0,0H296a0,0,0,0,1-.05,0h-.07l-.05,0Z" style="fill:#263238"></path><path d="M301.07,192.5a2.86,2.86,0,0,1,.7,1.68,2.94,2.94,0,0,1-.39,1.8,1.71,1.71,0,0,1-1.24.89,1.69,1.69,0,0,1-1.4-.59,2.89,2.89,0,0,1-.7-1.69,3,3,0,0,1,.39-1.8,1.73,1.73,0,0,1,1.27-.89A1.63,1.63,0,0,1,301.07,192.5Zm.08,1.75a2,2,0,0,0-.48-1.17,1.06,1.06,0,0,0-.9-.39,1.12,1.12,0,0,0-.84.59,2,2,0,0,0-.27,1.24,1.92,1.92,0,0,0,.48,1.16,1.07,1.07,0,0,0,.93.4,1.15,1.15,0,0,0,.82-.59A2.13,2.13,0,0,0,301.15,194.25Z" style="fill:#263238"></path><path d="M304.74,192.26l-.86.1.32,3.68a.35.35,0,0,1-.26.41c-.17,0-.32-.14-.34-.35l-.33-3.68-.86.1c-.17,0-.31-.15-.33-.36a.35.35,0,0,1,.26-.41l2.34-.25c.16,0,.31.13.33.34A.36.36,0,0,1,304.74,192.26Z" style="fill:#263238"></path><path d="M306.27,195.81l-.36-4.07a.35.35,0,0,1,.27-.41h0l1.77-.2a.34.34,0,0,1,.33.35.37.37,0,0,1-.26.42l-1.48.16.11,1.26,1.27-.14c.17,0,.32.15.34.35a.36.36,0,0,1-.27.42l-1.27.14.11,1.26,1.48-.16c.16,0,.32.14.34.35a.38.38,0,0,1-.27.42l-1.77.19h0C306.44,196.17,306.29,196,306.27,195.81Z" style="fill:#263238"></path><polygon points="300.52 185.6 301.06 186.58 301.99 186.69 301.42 187.61 301.65 188.76 300.77 188.35 299.98 188.94 299.99 187.77 299.28 186.99 300.17 186.68 300.52 185.6" style="fill:#fff"></polygon><polygon points="297.52 187.69 298 188.13 298.56 187.94 298.39 188.64 298.71 189.26 298.13 189.25 297.77 189.82 297.58 189.12 297.03 188.85 297.5 188.42 297.52 187.69" style="fill:#fff"></polygon><polygon points="303.83 186.99 303.44 187.53 302.86 187.47 303.15 188.11 302.94 188.79 303.51 188.66 303.96 189.13 304.03 188.41 304.52 188.02 303.98 187.71 303.83 186.99" style="fill:#fff"></polygon><polygon points="302.08 203.06 301.55 202.07 300.61 201.96 301.18 201.04 300.95 199.9 301.83 200.31 302.62 199.72 302.61 200.89 303.32 201.66 302.43 201.98 302.08 203.06" style="fill:#fff"></polygon><polygon points="305.08 200.97 304.6 200.53 304.04 200.72 304.21 200.02 303.89 199.4 304.47 199.41 304.83 198.84 305.02 199.54 305.57 199.81 305.1 200.24 305.08 200.97" style="fill:#fff"></polygon><polygon points="298.77 201.66 299.16 201.13 299.74 201.19 299.45 200.54 299.66 199.87 299.09 200 298.64 199.52 298.57 200.25 298.08 200.63 298.62 200.95 298.77 201.66" style="fill:#fff"></polygon><path d="M251.53,168.9C244,209,231.83,235.57,223.1,253.66c-6.4,13.24-27.8,45.83-35,53.78-7.33,8.14-54.83-18.35-51.72-24.63,3.18-6.43,41-43,47-53.21,3.67-6.23,32.86-44.84,50.61-68.62C244.85,146.47,256.93,140.38,251.53,168.9Z" style="fill: rgb(247, 169, 160);"></path><path d="M188.17,304.66c-1.55,8.41-8.14,25.17-12.55,27.56s-26.83.72-38.16.16-13.39-3.82-13-7.71,24.17-3.46,24.17-3.46-32.17,7.53-40.23,8.63-26.66,4.82-29-1.93c-1-3,4.13-5.81,4.13-5.81s-7.82,1.87-8.86-2c-1.18-4.44,5.07-6.54,5.07-6.54s-4.87.74-4.81-2.83c.15-8,30.51-10.38,30.51-10.38s-23.65,10.11-24.07,3.59c-.59-9,47.24-16.55,52.36-20.22a91.14,91.14,0,0,0,10.51-9.26Z" style="fill: rgb(247, 169, 160);"></path><path d="M124.52,326.66a3.48,3.48,0,0,1,1.23-3,9.66,9.66,0,0,1,2.84-1.65,37.24,37.24,0,0,1,6.59-1.79c4.52-.91,9.13-1.49,13.75-2.44a55.78,55.78,0,0,0-14.06.88,25.82,25.82,0,0,0-6.8,2.23,9,9,0,0,0-2.9,2.25A3.63,3.63,0,0,0,124.52,326.66Z" style="fill:#263238"></path><path d="M83.52,322.1c3.31-.64,6.57-1.4,9.83-2.17s6.5-1.6,9.74-2.4l9.7-2.53c3.24-.84,6.47-1.67,9.74-2.47a72.92,72.92,0,0,0-10,1.28c-3.31.58-6.58,1.36-9.83,2.18s-6.48,1.73-9.68,2.77S86.64,320.84,83.52,322.1Z" style="fill:#263238"></path><path d="M115.26,304.23A63.29,63.29,0,0,0,106,305,85.14,85.14,0,0,0,97,306.91a82.3,82.3,0,0,0-8.83,2.8,66.48,66.48,0,0,0-8.42,3.83c3-.86,5.86-1.84,8.81-2.67s5.87-1.68,8.84-2.43,5.92-1.48,8.89-2.2S112.24,304.89,115.26,304.23Z" style="fill:#263238"></path><path d="M111,296.42a57.43,57.43,0,0,0-14.72,2.36,56.66,56.66,0,0,0-13.72,5.83c4.78-1.44,9.42-3,14.16-4.3S106.15,297.71,111,296.42Z" style="fill:#263238"></path><path d="M191.25,317.71l-58.7-37s45.06-45.41,48.1-49.89,38-50.34,49.43-67.19c12.95-19,30.15-27.78,22.24,5.41-11.07,46.52-23.81,79.08-28.3,90.17S191.25,317.71,191.25,317.71Z" style="fill:#37474f"></path><path d="M192.88,303.09a61.74,61.74,0,0,0-6.17-4c-1.85-1.2-3.68-2.42-5.54-3.59-4.06-2.56-8.1-5.14-12.17-7.67s-8.11-5.08-12.19-7.57-8.06-5.1-12.25-7.35a.16.16,0,0,0-.17.26c3.68,3,7.68,5.68,11.6,8.38s7.83,5.19,11.81,7.69,8.17,5,12.32,7.35c2,1.15,4,2.23,6.06,3.32a56.13,56.13,0,0,0,6.57,3.42C192.87,303.34,193,303.18,192.88,303.09Z" style="fill:#263238"></path><path d="M185.83,314.3l5.52,3.25-.27.06,17-31.15q4.26-7.77,8.43-15.6c2.79-5.2,5.53-10.44,8.07-15.73a83.76,83.76,0,0,0,3.3-8.13c1-2.77,2-5.56,2.94-8.35l5.69-16.79q5.64-16.81,11.4-33.61-4.73,17.12-10,34.07-2.59,8.49-5.38,16.92c-.92,2.81-1.87,5.62-2.87,8.41a84.37,84.37,0,0,1-3.33,8.32c-2.54,5.39-5.35,10.59-8.17,15.8s-5.73,10.36-8.65,15.5q-8.82,15.42-18.1,30.54l-.11.18-.16-.11Z" style="fill:#263238"></path><path d="M244.18,200.09a23.18,23.18,0,0,1,2-4c.4-.63.78-1.25,1.2-1.86s.85-1.21,1.29-1.84a7,7,0,0,1-.6,2.21,16.54,16.54,0,0,1-1,2A15.18,15.18,0,0,1,244.18,200.09Z" style="fill:#263238"></path><path d="M280.22,168.72C273,171.47,259,162.55,252.7,154c-.43-.59-.35-7.37-.64-15.61-.2-5-.53-10.56-1.21-15.62-.14-1,32.73,3.48,32.73,3.48s-1.7,11-.47,19.82a11.28,11.28,0,0,0,.49,2c0,.09.07.21.09.34C284.86,152.32,287.18,166.06,280.22,168.72Z" style="fill: rgb(247, 169, 160);"></path><path d="M252.82,122.66c2.61,8.35,10.68,28.29,27.64,26.42a18.82,18.82,0,0,0,3.22-.61,1.42,1.42,0,0,0-.08-.34,12.42,12.42,0,0,1-.5-2c-1.23-8.82.48-19.83.48-19.83S259.87,123,252.82,122.66Z" style="fill:#263238"></path><path d="M246,82.16c-3.52,11.32,2.3,44.12,10.33,51.46,11.64,10.65,30.78,11.76,39.85-2.25,8.79-13.58.45-56.18-8.53-62.86C274.4,58.66,251.17,65.44,246,82.16Z" style="fill: rgb(247, 169, 160);"></path><path d="M294.35,80.26v0c0-.08-.06-.19-.09-.28C294.29,80.09,294.31,80.17,294.35,80.26Z" style="fill:#c7c7c7"></path><path d="M284.92,118.54a8.91,8.91,0,0,1-3.31,3,4,4,0,0,1-2.41.35c-1.79-.31-2-1.91-1.76-3.31a9.5,9.5,0,0,1,.6-2.17A11.55,11.55,0,0,0,284.92,118.54Z" style="fill:#263238"></path><path d="M281.61,121.59a4,4,0,0,1-2.41.35c-1.79-.31-2-1.91-1.76-3.31C279.33,118.66,281.29,119.78,281.61,121.59Z" style="fill:#ff9cbd"></path><path d="M275.09,103.18c0-.08-.16.14-.14.23.44,2.2.57,4.79-1.31,5.86-.05,0,0,.15,0,.12C276.07,108.64,275.86,105.2,275.09,103.18Z" style="fill:#263238"></path><path d="M272.72,101.2c-3.6.33-2.69,7.51.65,7.21S275.75,100.93,272.72,101.2Z" style="fill:#263238"></path><path d="M288.15,101.34c0-.08.19.09.19.18.22,2.23.84,4.76,2.94,5.24.07,0,.08.13,0,.12C288.78,106.85,288,103.49,288.15,101.34Z" style="fill:#263238"></path><path d="M289.84,98.77c3.54-.73,4.74,6.41,1.45,7.09S286.87,99.38,289.84,98.77Z" style="fill:#263238"></path><path d="M269.32,95.62a26.77,26.77,0,0,0,3,.06,4.81,4.81,0,0,0,3-.51,1.53,1.53,0,0,0,.42-1.83,3.8,3.8,0,0,0-3.44-1.71,5.62,5.62,0,0,0-3.86,1.13A1.63,1.63,0,0,0,269.32,95.62Z" style="fill:#263238"></path><path d="M292.26,96.89a26.81,26.81,0,0,1-3-.23,4.79,4.79,0,0,1-3-.81,1.54,1.54,0,0,1-.24-1.86,3.79,3.79,0,0,1,3.6-1.36,5.6,5.6,0,0,1,3.73,1.5A1.63,1.63,0,0,1,292.26,96.89Z" style="fill:#263238"></path><path d="M276.43,123.45c.6.46,1.23,1.11,2,1.07a5.93,5.93,0,0,0,2.32-.86.08.08,0,0,1,.11.1,3,3,0,0,1-2.67,1.57,2.39,2.39,0,0,1-2-1.75C276.18,123.46,276.34,123.39,276.43,123.45Z" style="fill:#263238"></path><path d="M277.92,116.49a7.65,7.65,0,0,0,5.49,2.73,9.74,9.74,0,0,0,2.74-.22,2.83,2.83,0,0,0,.52-.13l.47-.14a.56.56,0,0,0,.39-.55v0a.79.79,0,0,0,0-.22v0l0-.19c-.17-1.72-.67-4.31-.67-4.31.67.23,4.05,1.26,3.88.37-1.39-7.35-2.93-15.53-5.86-22.56a.21.21,0,0,0-.4.11c1.05,7.12,3.35,14,4.52,21.15a13.36,13.36,0,0,0-3.71-.63c-.24.1,1.05,5,1.06,5.76a.17.17,0,0,1,0,.08c-2.83.74-5.11.14-8.15-1.44C277.92,116.16,277.77,116.33,277.92,116.49Z" style="fill:#263238"></path><path d="M249.36,114.54c6.29,0,4-15.78,4-15.78S266,96.69,267.08,80.42c0,0,18.28,6.11,27.57-3.42s-16.08-35.24-46.72-6.65c0,0-11.36,4.2-12.33,12.41C235.2,86.17,241.75,114.53,249.36,114.54Z" style="fill:#263238"></path><path d="M266.63,78.57c-.08-.16-.34-.09-.3.09,2.18,10.75-4.62,20.65-16.14,20a.3.3,0,0,0-.06.6C261.53,101.05,271.92,89.55,266.63,78.57Z" style="fill:#263238"></path><path d="M276.56,57.3s0,0,0,0A38.74,38.74,0,0,1,288,60.09c5.38,2.46,12.43,8.92,8.75,15.43-5,8.92-18.44,6.66-26.65,4.64a.44.44,0,0,0-.3.83c8.27,3.57,25.41,4.41,28.78-6.49C302.26,62.44,285.09,57.42,276.56,57.3Z" style="fill:#263238"></path><path d="M254.85,109.48s-7.56-10.48-12.33-7.77,1,18,6.71,20a5.73,5.73,0,0,0,7.64-3.2Z" style="fill: rgb(247, 169, 160);"></path><path d="M244.29,106.05a.08.08,0,0,0,0,.15c4,1.54,6.12,5.18,7.64,9-1.2-1.44-2.81-2.22-4.76-.79-.1.07,0,.23.12.21a3.53,3.53,0,0,1,3.9,1.17,16.82,16.82,0,0,1,1.91,3.12c.19.35.82.15.68-.26l0-.09C253.74,113.48,249.72,106.48,244.29,106.05Z" style="fill:#263238"></path><path d="M283.14,146.35l-7.6,18.9-23.48-23.93L245.4,149s23,38,23.1,36.3L276.3,169l11.24,11.34-.89-28.46Z" style="fill:#fff"></path><path d="M287.9,166.25c-.31-4.7-.48-9.43-1-14.11a.16.16,0,0,0-.32,0c-.94,4.53.32,22.47.3,26.78l-.05,0c-.47-.49-10.42-10-10.52-9.83-1.69,2.58-7.41,14.44-7.8,15.52-3.63-6-19-29.84-23.34-35.55a.16.16,0,0,0-.28.16c3.21,6.38,23.11,37.79,23.4,37.71.19.15,7.3-14.46,8.15-17.22,1.69,2.07,11.73,12.77,11.76,12.08A147.48,147.48,0,0,0,287.9,166.25Z" style="fill:#263238"></path><path d="M245.16,149a35.22,35.22,0,0,1,6.9-7.65,35.85,35.85,0,0,1-6.9,7.65Z" style="fill:#263238"></path><path d="M283.14,146.35a16,16,0,0,1,3.75,5.79,14.41,14.41,0,0,1-2.19-2.69A14.76,14.76,0,0,1,283.14,146.35Z" style="fill:#263238"></path></g><g id="freepik--Podium--inject-36"><rect x="82.84" y="331.87" width="334.32" height="20.74" style="fill:#5DB6FC"></rect><rect x="82.84" y="331.87" width="334.32" height="20.74" style="opacity:0.1"></rect><polygon points="403.44 455 96.12 455 100.15 372.85 101.14 352.63 101.14 352.62 397.87 352.62 397.87 352.63 403.44 455" style="fill:#5DB6FC"></polygon><polygon points="403.44 455 96.12 455 100.15 372.85 101.14 352.63 101.14 352.62 397.87 352.62 397.87 352.63 403.44 455" style="opacity:0.2"></polygon><polygon points="374.58 455 125.21 455 128.14 395.06 371.31 395.06 371.61 400.47 374.58 455" style="fill:#5DB6FC"></polygon><polygon points="374.58 455 125.21 455 128.14 395.06 371.31 395.06 371.61 400.47 374.58 455" style="opacity:0.30000000000000004"></polygon><polygon points="374.81 455 133.01 455 135.61 400.47 371.92 400.47 374.81 455" style="opacity:0.1"></polygon><polygon points="398.71 368.4 100.13 372.85 101.13 352.62 397.85 352.62 398.71 368.4" style="opacity:0.1"></polygon><rect x="356.83" y="326.04" width="33.12" height="5.84" style="fill:#263238"></rect><polygon points="372.62 327.2 364.9 266.39 345.58 243.35 347.51 241.78 367.28 265.37 375.09 326.89 372.62 327.2" style="fill:#263238"></polygon><path d="M360.94,260h0a6.3,6.3,0,0,1-8.89-.69l-11.95-14a6.32,6.32,0,0,1,.7-8.9h0a6.31,6.31,0,0,1,8.89.7l11.95,14A6.31,6.31,0,0,1,360.94,260Z" style="fill:#263238"></path><rect x="216.97" y="326.04" width="33.12" height="5.84" transform="translate(467.07 657.91) rotate(180)" style="fill:#263238"></rect><polygon points="234.3 327.2 242.02 266.39 261.34 243.35 259.41 241.78 239.64 265.37 231.83 326.89 234.3 327.2" style="fill:#263238"></polygon><path d="M246,260h0a6.3,6.3,0,0,0,8.89-.69l11.95-14a6.32,6.32,0,0,0-.69-8.9h0a6.32,6.32,0,0,0-8.9.7l-12,14A6.31,6.31,0,0,0,246,260Z" style="fill:#263238"></path><rect x="306.04" y="326.04" width="33.12" height="5.84" style="fill:#263238"></rect><polygon points="321.84 327.2 314.12 266.39 306.71 244.17 308.99 243.61 316.49 265.37 324.3 326.89 321.84 327.2" style="fill:#263238"></polygon><path d="M314.31,262.89h0a6.3,6.3,0,0,1-8-3.88l-6-17.36a6.31,6.31,0,0,1,3.88-8h0a6.31,6.31,0,0,1,8,3.89l6.05,17.36A6.3,6.3,0,0,1,314.31,262.89Z" style="fill:#263238"></path></g></svg>